<?xml version="1.0" encoding="UTF-8"?>
<svg version="1.1" xmlns="http://www.w3.org/2000/svg" width="204" height="192">
<path d="M0 0 C67.32 0 134.64 0 204 0 C204 63.36 204 126.72 204 192 C136.68 192 69.36 192 0 192 C0 128.64 0 65.28 0 0 Z " fill="#FEFEFE" transform="translate(0,0)"/>
<path d="M0 0 C26.4 0 52.8 0 80 0 C80 18.48 80 36.96 80 56 C53.6 56 27.2 56 0 56 C0 37.52 0 19.04 0 0 Z " fill="#FBFBFB" transform="translate(62,68)"/>
<path d="M0 0 C2.45212111 0.29927963 3.7061352 0.71341194 5.48876953 2.4519043 C5.94880371 3.06976807 6.40883789 3.68763184 6.8828125 4.32421875 C7.40593018 5.01700928 7.92904785 5.7097998 8.46801758 6.42358398 C9.01482178 7.17067627 9.56162598 7.91776855 10.125 8.6875 C10.69178467 9.44683838 11.25856934 10.20617676 11.8425293 10.98852539 C13.57378253 13.31703062 15.28839784 15.65702446 17 18 C17.52126465 18.70705078 18.0425293 19.41410156 18.57958984 20.14257812 C19.9982651 22.06875073 21.40806536 24.00092636 22.8125 25.9375 C23.23869629 26.52168701 23.66489258 27.10587402 24.10400391 27.70776367 C27 31.76300747 27 31.76300747 27 34 C4.56 34 -17.88 34 -41 34 C-38.158975 29.02820625 -35.46869923 24.63182409 -32.0625 20.125 C-31.43698242 19.25488281 -31.43698242 19.25488281 -30.79882812 18.3671875 C-28.75453776 15.66253132 -27.46472365 14.14566927 -24.18359375 13.1171875 C-23.46300781 13.07851562 -22.74242188 13.03984375 -22 13 C-17 18.75 -17 18.75 -17 21 C-13.04372456 17.35026406 -9.9917904 13.12697732 -6.8125 8.8125 C-5.73630646 7.36021049 -4.65951531 5.90836356 -3.58203125 4.45703125 C-2.87397339 3.4976062 -2.87397339 3.4976062 -2.15161133 2.51879883 C-1 1 -1 1 0 0 Z " fill="#A1A1A1" transform="translate(109,85)"/>
<path d="M0 0 C26.4 0 52.8 0 80 0 C80 18.48 80 36.96 80 56 C53.6 56 27.2 56 0 56 C0 37.52 0 19.04 0 0 Z M3 3 C3 19.5 3 36 3 53 C27.75 53 52.5 53 78 53 C78 36.5 78 20 78 3 C53.25 3 28.5 3 3 3 Z " fill="#A3A3A3" transform="translate(62,68)"/>
<path d="M0 0 C2.9375 0.875 2.9375 0.875 4.9375 3.875 C5.28992362 6.69438897 5.28395957 8.26360077 3.875 10.75 C1.9375 11.875 1.9375 11.875 -1.625 11.8125 C-5.0625 10.875 -5.0625 10.875 -6.5625 9.0625 C-7.14664185 6.5068794 -7.07454868 5.28834685 -6.0625 2.875 C-4.181661 0.00424573 -3.4955056 -0.1426737 0 0 Z " fill="#A4A4A4" transform="translate(76.0625,76.125)"/>
</svg>
